<svg width="200" height="200" viewBox="0 0 200 200" xmlns="http://www.w3.org/2000/svg">
  <!-- 배경 원 -->
  <circle cx="100" cy="100" r="90" fill="#F0F8FF" stroke="#E0E8FF" stroke-width="2"/>
  
  <!-- 아이 캐릭터 (카메라 들고 있는 모습) -->
  <!-- 머리 -->
  <circle cx="100" cy="75" r="35" fill="#FFF0E6" stroke="#8B6F47" stroke-width="3"/>
  
  <!-- 머리카락 (여자아이 스타일) -->
  <path d="M 65 60 Q 70 45, 85 50 Q 100 40, 115 50 Q 130 45, 135 60 L 135 75 Q 130 65, 125 70 L 125 80 Q 120 75, 115 78 L 115 85 Q 110 82, 100 82 Q 90 82, 85 85 L 85 78 Q 80 75, 75 80 L 75 70 Q 70 65, 65 75 Z" 
        fill="#8B6F47"/>
  
  <!-- 리본 -->
  <ellipse cx="125" cy="55" rx="8" ry="6" fill="#FFB6C1" stroke="#FF69B4" stroke-width="1"/>
  <ellipse cx="135" cy="55" rx="8" ry="6" fill="#FFB6C1" stroke="#FF69B4" stroke-width="1"/>
  <circle cx="130" cy="55" r="3" fill="#FF1493"/>
  
  <!-- 눈 -->
  <circle cx="85" cy="75" r="2" fill="#5D4037"/>
  <circle cx="115" cy="75" r="2" fill="#5D4037"/>
  
  <!-- 입 -->
  <path d="M 90 85 Q 100 90, 110 85" fill="none" stroke="#5D4037" stroke-width="2" stroke-linecap="round"/>
  
  <!-- 볼 -->
  <circle cx="70" cy="80" r="8" fill="#FFB6C1" opacity="0.5"/>
  <circle cx="130" cy="80" r="8" fill="#FFB6C1" opacity="0.5"/>
  
  <!-- 몸통 -->
  <ellipse cx="100" cy="125" rx="30" ry="35" fill="#FFB6C1" stroke="#FF69B4" stroke-width="2"/>
  
  <!-- 팔 (카메라 들고 있는 자세) -->
  <path d="M 80 115 Q 60 120, 55 130" fill="none" stroke="#FFF0E6" stroke-width="8" stroke-linecap="round"/>
  <path d="M 120 115 Q 140 120, 145 130" fill="none" stroke="#FFF0E6" stroke-width="8" stroke-linecap="round"/>
  
  <!-- 카메라 -->
  <rect x="125" y="115" width="35" height="25" fill="#4A4A4A" stroke="#2A2A2A" stroke-width="2" rx="3"/>
  <!-- 렌즈 -->
  <circle cx="142" cy="127" r="8" fill="#333" stroke="#222" stroke-width="1"/>
  <circle cx="142" cy="127" r="6" fill="#444" stroke="none"/>
  <circle cx="142" cy="127" r="4" fill="#87CEEB" stroke="none"/>
  <circle cx="140" cy="125" r="2" fill="#FFF" opacity="0.7"/>
  <!-- 플래시 -->
  <rect x="130" y="117" width="8" height="5" fill="#FFD700" stroke="#FFA500" stroke-width="1" rx="1"/>
  <!-- 뷰파인더 -->
  <rect x="145" y="112" width="10" height="3" fill="#666" stroke="#333" stroke-width="1" rx="1"/>
  
  <!-- 사진들 (떠다니는 효과) -->
  <g transform="rotate(-10 40 140)">
    <rect x="30" y="130" width="20" height="25" fill="#FFF" stroke="#DDD" stroke-width="1"/>
    <rect x="33" y="133" width="14" height="10" fill="#87CEEB" opacity="0.5"/>
    <circle cx="37" cy="138" r="2" fill="#FFD700"/>
    <rect x="33" y="145" width="14" height="2" fill="#DDD"/>
    <rect x="33" y="148" width="10" height="1" fill="#DDD"/>
  </g>
  
  <g transform="rotate(15 50 50)">
    <rect x="40" y="40" width="20" height="25" fill="#FFF" stroke="#DDD" stroke-width="1"/>
    <rect x="43" y="43" width="14" height="10" fill="#FFB6C1" opacity="0.5"/>
    <circle cx="50" cy="48" r="2" fill="#FF69B4"/>
    <rect x="43" y="55" width="14" height="2" fill="#DDD"/>
  </g>
  
  <!-- 반짝이 효과 -->
  <path d="M 25 30 L 30 35 L 25 40 L 20 35 Z" fill="#FFD700" opacity="0.7"/>
  <path d="M 170 50 L 175 55 L 170 60 L 165 55 Z" fill="#FFD700" opacity="0.7"/>
  <path d="M 165 140 L 170 145 L 165 150 L 160 145 Z" fill="#FFD700" opacity="0.7"/>
  
  <!-- 하트 -->
  <path d="M 75 35 C 75 30, 80 28, 83 32 C 86 28, 91 30, 91 35 C 91 40, 83 45, 83 45 C 83 45, 75 40, 75 35 Z" 
        fill="#FF69B4" opacity="0.6"/>
</svg>